<svg width="2255" height="596" viewBox="0 0 2255 596" fill="none" xmlns="http://www.w3.org/2000/svg">
<g filter="url(#filter0_d_389_2)">
<mask id="mask0_389_2" style="mask-type:luminance" maskUnits="userSpaceOnUse" x="79" y="79" width="2097" height="438">
<path d="M2175.6 79H79V517H2175.6V79Z" fill="white"/>
</mask>
<g mask="url(#mask0_389_2)">
<path d="M2589.47 1541.24C2589.41 1917.12 2444.62 2278.53 2185.14 2550.45C1925.67 2822.38 1571.43 2983.94 1195.98 3001.59C820.525 3019.25 452.697 2891.63 168.846 2645.26C-115.004 2398.88 -293.07 2052.64 -328.387 1678.44C-363.705 1304.23 -253.563 930.802 -20.823 635.671C211.917 340.525 549.375 146.342 921.499 93.4498C1293.62 40.542 1671.83 132.971 1977.6 351.546C2283.38 570.135 2493.23 898.072 2563.61 1267.29C2580.98 1357.57 2589.64 1449.31 2589.47 1541.24Z" fill="#E8463C"/>
<path d="M2641.01 1624.62C2640.95 2000.49 2496.16 2361.9 2236.69 2633.83C1977.21 2905.76 1622.97 3067.32 1247.52 3084.97C872.071 3102.63 504.242 2975.01 220.392 2728.63C-63.4575 2482.26 -241.524 2136.02 -276.842 1761.82C-312.159 1387.61 -202.017 1014.18 30.7229 719.049C263.462 423.903 600.921 229.721 973.045 176.828C1345.17 123.92 1723.38 216.35 2029.15 434.924C2334.92 653.514 2544.78 981.451 2615.15 1350.67C2632.52 1440.94 2641.18 1532.69 2641.01 1624.62Z" fill="#9C2C25"/>
<path fill-rule="evenodd" clip-rule="evenodd" d="M618.694 527.612C766.503 402.286 1167.93 204.557 1591.2 416.188C1764.29 502.735 1903.75 487.09 2012.08 422.903C2017.79 426.875 2023.48 430.877 2029.15 434.925C2334.92 653.515 2544.78 981.452 2615.15 1350.67C2632.52 1440.95 2641.18 1532.69 2641.01 1624.62C2640.95 2000.49 2496.16 2361.9 2236.69 2633.83C1977.21 2905.76 1622.97 3067.32 1247.52 3084.97C872.071 3102.63 504.242 2975.01 220.392 2728.64C-63.4575 2482.26 -241.524 2136.02 -276.842 1761.82C-312.159 1387.61 -202.017 1014.18 30.7229 719.05C71.3381 667.537 115.143 619.102 161.764 573.971L618.694 527.612Z" fill="#4B0803"/>
<path d="M890.633 205.905C895.722 224.916 888.51 246.428 870.497 265.999C852.483 285.57 825.051 301.67 793.893 310.978C762.737 320.286 730.248 322.075 703.173 315.966C676.097 309.871 656.515 296.349 648.491 278.218C640.465 260.086 644.616 238.726 660.079 218.594C675.542 198.447 701.13 181.058 731.532 170.052C761.932 159.031 794.812 155.241 823.344 159.44C851.877 163.64 873.869 175.525 884.757 192.625C887.434 196.794 889.402 201.251 890.633 205.905Z" fill="#E8463C"/>
<path d="M445.032 370.465C449.033 385.413 446.715 401.421 438.557 415.202C430.4 428.967 417.03 439.427 401.223 444.415C385.417 449.402 368.39 448.538 353.674 441.974C338.959 435.425 327.686 423.691 322.195 409.229C316.706 394.751 317.42 378.651 324.191 364.265C330.963 349.878 343.27 338.311 358.559 331.959C373.847 325.607 390.943 324.971 406.297 330.17C421.651 335.355 434.083 345.997 441.013 359.868C442.715 363.264 444.06 366.812 445.032 370.465Z" fill="#E8463C"/>
</g>
</g>
<defs>
<filter id="filter0_d_389_2" x="0.5" y="0.5" width="2253.6" height="595" filterUnits="userSpaceOnUse" color-interpolation-filters="sRGB">
<feFlood flood-opacity="0" result="BackgroundImageFix"/>
<feColorMatrix in="SourceAlpha" type="matrix" values="0 0 0 0 0 0 0 0 0 0 0 0 0 0 0 0 0 0 127 0" result="hardAlpha"/>
<feOffset/>
<feGaussianBlur stdDeviation="39.25"/>
<feComposite in2="hardAlpha" operator="out"/>
<feColorMatrix type="matrix" values="0 0 0 0 1 0 0 0 0 0 0 0 0 0 0 0 0 0 1 0"/>
<feBlend mode="normal" in2="BackgroundImageFix" result="effect1_dropShadow_389_2"/>
<feBlend mode="normal" in="SourceGraphic" in2="effect1_dropShadow_389_2" result="shape"/>
</filter>
</defs>
</svg>
