<svg width="2097" height="438" viewBox="0 0 2097 438" fill="none" xmlns="http://www.w3.org/2000/svg">
<mask id="mask0_389_2" style="mask-type:luminance" maskUnits="userSpaceOnUse" x="0" y="0" width="2097" height="438">
<path d="M2096.6 0H0V438H2096.6V0Z" fill="white"/>
</mask>
<g mask="url(#mask0_389_2)">
<path d="M2510.47 1462.24C2510.41 1838.12 2365.62 2199.53 2106.14 2471.45C1846.67 2743.38 1492.43 2904.94 1116.98 2922.59C741.525 2940.25 373.697 2812.63 89.8462 2566.26C-194.004 2319.88 -372.07 1973.64 -407.387 1599.44C-442.705 1225.23 -332.563 851.802 -99.823 556.671C132.917 261.525 470.375 67.3424 842.499 14.4498C1214.62 -38.458 1592.83 53.9714 1898.6 272.546C2204.38 491.135 2414.23 819.072 2484.61 1188.29C2501.98 1278.57 2510.64 1370.31 2510.47 1462.24Z" fill="#E8463C"/>
<path d="M2562.01 1545.62C2561.95 1921.49 2417.16 2282.9 2157.69 2554.83C1898.21 2826.76 1543.97 2988.32 1168.52 3005.97C793.071 3023.63 425.242 2896.01 141.392 2649.63C-142.458 2403.26 -320.524 2057.02 -355.842 1682.82C-391.159 1308.61 -281.017 935.181 -48.2771 640.049C184.462 344.903 521.921 150.721 894.045 97.8282C1266.17 44.9204 1644.38 137.35 1950.15 355.924C2255.92 574.514 2465.78 902.451 2536.15 1271.67C2553.52 1361.94 2562.18 1453.69 2562.01 1545.62Z" fill="#9C2C25"/>
<path fill-rule="evenodd" clip-rule="evenodd" d="M539.694 448.612C687.503 323.286 1088.93 125.557 1512.2 337.188C1685.29 423.735 1824.75 408.09 1933.08 343.903C1938.79 347.875 1944.48 351.877 1950.15 355.925C2255.92 574.515 2465.78 902.452 2536.15 1271.67C2553.52 1361.95 2562.18 1453.69 2562.01 1545.62C2561.95 1921.49 2417.16 2282.9 2157.69 2554.83C1898.21 2826.76 1543.97 2988.32 1168.52 3005.97C793.071 3023.63 425.242 2896.01 141.392 2649.64C-142.458 2403.26 -320.524 2057.02 -355.842 1682.82C-391.159 1308.61 -281.017 935.182 -48.2771 640.05C-7.66186 588.537 36.1426 540.102 82.7637 494.971L539.694 448.612Z" fill="#4B0803"/>
<path d="M811.633 126.905C816.722 145.916 809.51 167.428 791.497 186.999C773.483 206.57 746.051 222.67 714.893 231.978C683.737 241.286 651.248 243.075 624.173 236.966C597.097 230.871 577.515 217.349 569.491 199.218C561.465 181.086 565.616 159.726 581.079 139.594C596.542 119.447 622.13 102.058 652.532 91.0523C682.932 80.0311 715.812 76.2412 744.344 80.4404C772.877 84.6397 794.869 96.525 805.757 113.625C808.434 117.794 810.402 122.251 811.633 126.905Z" fill="#E8463C"/>
<path d="M366.032 291.465C370.033 306.413 367.715 322.421 359.557 336.202C351.4 349.967 338.03 360.427 322.223 365.415C306.417 370.402 289.39 369.538 274.674 362.974C259.959 356.425 248.686 344.691 243.195 330.229C237.706 315.751 238.42 299.651 245.191 285.265C251.963 270.878 264.27 259.311 279.559 252.959C294.847 246.607 311.943 245.971 327.297 251.17C342.651 256.355 355.083 266.997 362.013 280.868C363.715 284.264 365.06 287.812 366.032 291.465Z" fill="#E8463C"/>
</g>
</svg>
