<svg width="309" height="126" viewBox="0 0 309 126" fill="none" xmlns="http://www.w3.org/2000/svg">
<path d="M149.908 0H309V69.2406H191.868L149.908 0Z" fill="#D30D0D"/>
<path d="M296.215 25.2138C297.496 28.153 298.107 31.2758 298.107 34.6436C298.107 38.0115 297.496 41.1343 296.215 44.0735C294.872 47.0739 293.162 49.6457 290.965 51.9113C288.767 54.1157 286.142 55.8915 283.151 57.1773C280.221 58.4632 277.046 59.1368 273.689 59.1368H257.451L265.57 50.9316H273.689C275.947 50.9316 278.084 50.503 280.037 49.7069C281.991 48.8497 283.761 47.6862 285.226 46.1554C286.691 44.6246 287.851 42.9101 288.706 40.9506C289.561 38.9299 289.988 36.848 289.988 34.6436C289.988 32.4393 289.561 30.3573 288.706 28.3367C287.851 26.3772 286.691 24.6627 285.165 23.1319C283.7 21.6623 281.93 20.4376 279.976 19.5804C278.023 18.7843 275.886 18.3557 273.689 18.3557H265.57L257.451 10.1505H273.689C277.046 10.1505 280.16 10.8241 283.151 12.1099C286.081 13.3958 288.706 15.1716 290.904 17.376C293.162 19.6416 294.872 22.2134 296.215 25.2138Z" fill="white"/>
<path d="M218.858 10.1521L226.977 18.357H251.395V10.1521H218.858ZM218.858 30.6032V38.7469H251.395V30.6032H218.858Z" fill="white"/>
<path d="M218.858 59.1368H251.395V50.9319H226.977L218.858 59.1368Z" fill="white"/>
<path d="M210.964 35.6846C212.917 32.9291 213.833 29.8675 213.833 26.4384C213.833 21.9684 212.246 18.172 209.071 14.9266C205.897 11.7425 202.051 10.1505 197.595 10.1505H176.168L180.38 17.4372L180.867 18.3557H197.595C199.792 18.3557 201.685 19.1517 203.272 20.7438C204.92 22.3358 205.714 24.234 205.714 26.4384C205.714 28.7041 204.92 30.6635 203.272 32.2556C201.685 33.8476 199.792 34.6436 197.595 34.6436L190.33 34.5824L204.493 59.1368H213.833L203.821 41.563C206.691 40.3995 209.071 38.4401 210.964 35.6846Z" fill="white"/>
<path d="M133.396 10.1505L141.515 18.3557H165.933V10.1505H133.396ZM133.396 30.6023V38.7462H165.933V30.6023H133.396Z" fill="white"/>
<path d="M133.396 59.1368H165.933V50.9316H141.515L133.396 59.1368Z" fill="white"/>
<path d="M125.079 25.2138C126.361 28.153 126.971 31.2758 126.971 34.6436C126.971 38.0114 126.361 41.1343 125.079 44.0735C123.736 47.0739 122.026 49.6457 119.829 51.9113C117.631 54.1157 115.006 55.8914 112.015 57.1773C109.085 58.4632 105.91 59.1368 102.553 59.1368H86.3146L94.4337 50.9316H102.553C104.811 50.9316 106.948 50.503 108.901 49.7069C110.855 48.8497 112.625 47.6862 114.09 46.1554C115.555 44.6246 116.715 42.9101 117.57 40.9506C118.425 38.9299 118.852 36.848 118.852 34.6436C118.852 32.4393 118.425 30.3573 117.57 28.3367C116.715 26.3772 115.555 24.6627 114.029 23.1319C112.564 21.6623 110.794 20.4376 108.84 19.5804C106.887 18.7843 104.75 18.3557 102.553 18.3557H94.4337L86.3146 10.1505H102.553C105.91 10.1505 109.024 10.8241 112.015 12.1099C114.945 13.3958 117.57 15.1716 119.768 17.376C122.026 19.6416 123.736 22.2134 125.079 25.2138Z" fill="white"/>
<path d="M66.7263 10.1505C73.5023 10.1505 79.1796 12.5998 83.9411 17.376C88.7637 22.1521 91.2056 27.908 91.2056 34.6436C91.2056 41.4405 88.7637 47.1964 83.9411 51.9113C79.1796 56.6875 73.5023 59.1368 66.7263 59.1368C59.9502 59.1368 54.273 56.6875 49.5114 51.9113C44.7499 47.1351 42.3081 41.4405 42.3081 34.6436C42.3081 27.908 44.7499 22.1521 49.5114 17.376C54.2119 12.5998 59.9502 10.1505 66.7263 10.1505ZM66.7263 18.3557C62.27 18.3557 58.4241 19.8865 55.1887 23.1319C52.0143 26.316 50.4882 30.1736 50.4882 34.6436C50.4882 39.1136 52.0143 43.0325 55.1887 46.2167C58.363 49.4008 62.27 50.9316 66.7263 50.9316C71.1826 50.9316 75.0285 49.4008 78.2028 46.2167C81.4383 42.9713 82.9644 39.1136 82.9644 34.6436C82.9644 30.1736 81.3772 26.316 78.2028 23.1319C75.0285 19.9478 71.1826 18.3557 66.7263 18.3557Z" fill="white"/>
<path d="M0 34.4717C1.03691 8.46934 29.7742 4.16038 41.4765 17.3845L35.6994 23.0307C25.6266 12.7783 7.99904 19.6132 7.99904 34.4717H0Z" fill="white"/>
<path d="M0 34.4717C1.03691 60.4741 29.7742 64.783 41.4765 51.559L35.6994 45.9128C25.6266 56.1651 7.99904 49.3302 7.99904 34.4717H0Z" fill="white"/>
<path d="M170.646 81.4245H309V82.9104H170.646V81.4245Z" fill="white"/>
<path d="M0 81.4245H138.058V82.9104H0V81.4245Z" fill="white"/>
<path d="M154.352 75.4811L158.2 82.1674H150.503L154.352 75.4811Z" fill="#D30D0D"/>
<path d="M154.352 88.8538L158.2 82.1674H150.503L154.352 88.8538Z" fill="#D30D0D"/>
<path d="M192.551 103.633C192.551 103.633 186.085 103.78 186.085 110.265C186.085 116.751 192.551 116.898 192.551 116.898H198.208C198.208 116.898 201 116.861 201 119.22C201 121.578 198.208 121.541 198.208 121.541H191.284L186.052 125.853H198.832C198.832 125.853 205.298 125.705 205.298 119.22C205.298 112.734 198.832 112.587 198.832 112.587H193.175C193.175 112.587 190.383 112.624 190.383 110.265C190.383 107.907 193.175 107.944 193.175 107.944H204.49V103.633H192.551Z" fill="white"/>
<path d="M249.696 103.712C249.696 103.712 243.23 103.86 243.23 110.345C243.23 116.831 249.696 116.978 249.696 116.978H255.353C255.353 116.978 258.145 116.941 258.145 119.299C258.145 121.658 255.353 121.621 255.353 121.621H248.429L243.23 125.932H255.978C255.978 125.932 262.443 125.785 262.443 119.299C262.443 112.814 255.978 112.667 255.978 112.667H250.32C250.32 112.667 247.528 112.703 247.528 110.345C247.528 107.987 250.32 108.024 250.32 108.024H261.635V103.712H249.696Z" fill="white"/>
<path d="M226.49 125.853V103.633H222.229V125.853H226.49Z" fill="white"/>
<path d="M169.461 107.873H156.574L152.278 103.712H169.461V107.873Z" fill="white"/>
<path d="M169.461 121.542H156.574L152.278 126H169.461V121.542Z" fill="white"/>
<path d="M152.278 112.627H169.461V116.936H152.278V112.627Z" fill="white"/>
<path d="M116.464 103.633V125.853H120.725V109.971L129.248 125.853H134.942V103.633H130.644V119.367L122.084 103.633H116.464Z" fill="white"/>
<path d="M98.6548 107.873H85.7675L81.4717 103.712H98.6548V107.873Z" fill="white"/>
<path d="M98.6548 121.542H85.7675L81.4717 126H98.6548V121.542Z" fill="white"/>
<path d="M81.4717 112.627H98.6548V116.936H81.4717V112.627Z" fill="white"/>
<path d="M55.3948 112.587V116.898H59.693V121.541H56.2398C56.2398 121.541 50.2518 121.173 50.2518 114.724C50.2518 108.312 56.2398 107.944 56.2398 107.944H63.9911V103.633H56.0561C56.0561 103.633 45.9536 103.964 45.9536 114.724C45.9536 125.521 56.0561 125.853 56.0561 125.853H63.9911V112.587H55.3948Z" fill="white"/>
</svg>
