<svg width="432" height="432" viewBox="0 0 432 432" fill="none" xmlns="http://www.w3.org/2000/svg">
<path d="M431.26 215.96C431.252 271.347 409.916 324.603 371.68 364.674C333.443 404.745 281.245 428.552 225.919 431.153C170.594 433.754 116.391 414.95 74.5642 378.644C32.7369 342.338 6.49755 291.318 1.29319 236.177C-3.91118 181.035 12.3192 126.007 46.615 82.5162C80.9109 39.0252 130.638 10.4119 185.473 2.61596C240.308 -5.17994 296.039 8.44047 341.098 40.6497C386.156 72.859 417.08 121.183 427.45 175.59C430.01 188.894 431.286 202.413 431.26 215.96V215.96Z" fill="#E8463C"/>
<mask id="mask0_731_2" style="mask-type:alpha" maskUnits="userSpaceOnUse" x="0" y="0" width="432" height="432">
<path d="M431.26 215.96C431.252 271.347 409.916 324.603 371.68 364.674C333.443 404.745 281.245 428.552 225.919 431.153C170.594 433.754 116.391 414.95 74.5642 378.644C32.7369 342.338 6.49755 291.318 1.29319 236.177C-3.91118 181.035 12.3192 126.007 46.615 82.5162C80.9109 39.0252 130.638 10.4119 185.473 2.61596C240.308 -5.17994 296.039 8.44047 341.098 40.6497C386.156 72.859 417.08 121.183 427.45 175.59C430.01 188.894 431.286 202.413 431.26 215.96V215.96Z" fill="#E8463C"/>
</mask>
<g mask="url(#mask0_731_2)">
<path d="M464.56 183.05C464.553 238.436 443.216 291.693 404.98 331.763C366.744 371.834 314.545 395.641 259.219 398.243C203.894 400.844 149.692 382.04 107.864 345.733C66.0372 309.427 39.7978 258.407 34.5935 203.266C29.3891 148.124 45.6195 93.0965 79.9153 49.6055C114.211 6.11457 163.938 -22.4988 218.773 -30.2947C273.608 -38.0906 329.34 -24.4702 374.398 7.73907C419.456 39.9483 450.38 88.2723 460.75 142.679C463.31 155.983 464.586 169.502 464.56 183.05V183.05Z" fill="#9C2C25"/>
</g>
<mask id="mask1_731_2" style="mask-type:alpha" maskUnits="userSpaceOnUse" x="0" y="0" width="432" height="432">
<path d="M431.26 215.96C431.252 271.347 409.916 324.603 371.68 364.674C333.443 404.745 281.245 428.552 225.919 431.153C170.594 433.754 116.391 414.95 74.5642 378.644C32.7369 342.338 6.49755 291.318 1.29319 236.177C-3.91118 181.035 12.3192 126.007 46.615 82.5162C80.9109 39.0252 130.638 10.4119 185.473 2.61596C240.308 -5.17994 296.039 8.44047 341.098 40.6497C386.156 72.859 417.08 121.183 427.45 175.59C430.01 188.894 431.286 202.413 431.26 215.96V215.96Z" fill="#4B0803"/>
</mask>
<g mask="url(#mask1_731_2)">
<path d="M525.041 131.21C525.033 186.596 503.697 239.853 465.46 279.924C427.224 319.994 375.025 343.801 319.7 346.403C264.375 349.004 210.172 330.2 168.345 293.893C126.518 257.587 100.278 206.568 95.074 151.426C89.8696 96.2845 106.1 41.2567 140.396 -2.2343C174.692 -45.7253 224.419 -74.3386 279.254 -82.1345C334.089 -89.9304 389.82 -76.31 434.878 -44.1008C479.936 -11.8915 510.86 36.4324 521.23 90.8395C523.791 104.143 525.067 117.662 525.041 131.21V131.21Z" fill="#4B0803"/>
</g>
<ellipse cx="103.48" cy="332.6" rx="49.68" ry="48.24" transform="rotate(35.867 103.48 332.6)" fill="#E8463C"/>
<circle cx="32.2" cy="212.36" r="20.16" fill="#E8463C"/>
<circle cx="144.52" cy="196.52" r="18" fill="#4B0803" stroke="#9C2C25" stroke-width="4.32"/>
<circle cx="243.16" cy="298.04" r="24.48" fill="#4B0803" stroke="#9C2C25" stroke-width="4.32"/>
<ellipse cx="200.68" cy="398.12" rx="24.48" ry="20.16" fill="#E8463C"/>
<circle cx="270.52" cy="210.2" r="11.52" fill="#4B0803" stroke="#9C2C25" stroke-width="4.32"/>
</svg>
