<svg width="689" height="451" viewBox="0 0 689 451" fill="none" xmlns="http://www.w3.org/2000/svg">
<path d="M181.688 79.9233L181.679 79.9166C178.815 77.878 176.086 75.4747 174.017 72.6318C171.933 69.7665 170.127 65.8844 170.317 61.2631C170.716 51.525 179.006 46.3863 185.006 43.8589L181.688 79.9233ZM181.688 79.9233C182.03 80.1658 182.377 80.4126 182.729 80.6621L182.776 80.6957L187.411 74.1624M181.688 79.9233L187.411 74.1624M184.986 396.662L184.97 396.655C179.011 394.113 170.717 388.97 170.317 379.244C170.127 374.616 171.941 370.735 174.027 367.876C176.095 365.042 178.822 362.646 181.678 360.613L184.986 396.662ZM184.986 396.662L185.003 396.669M184.986 396.662L185.003 396.669M185.003 396.669C204.297 404.823 236.796 417.58 266.588 424.44M185.003 396.669L266.588 424.44M187.411 74.1624L182.777 80.6957C191.777 87.08 203.908 95.7327 213.862 107.177C223.74 118.534 230.803 131.884 230.803 147.64L230.803 163.882M187.411 74.1624L230.803 163.882M230.803 163.882C230.514 166.58 230.355 169.287 230.318 171.982C227.394 155.523 213.014 143.025 195.715 143.025C182.478 143.025 170.949 150.343 164.955 161.155C163.189 151.521 156.317 143.418 146.783 140.24L100.501 124.813C77.2526 117.063 57.3542 143.115 70.9476 163.505C72.3184 165.562 71.6923 168.347 69.5729 169.618L24.0859 196.91C6.45959 207.486 6.45959 233.032 24.0859 243.607L68.3535 270.168C71.1366 271.838 71.959 275.495 70.1586 278.196C56.4219 298.801 75.248 325.515 99.2727 319.509L144.777 308.133C155.754 305.389 163.764 296.198 165.178 285.207C171.232 295.801 182.64 302.941 195.715 302.941C213.23 302.941 227.752 290.13 230.422 273.367C230.504 274.981 230.63 276.597 230.803 278.209L230.803 292.889C230.803 308.605 223.763 321.931 213.905 333.279C203.972 344.715 191.858 353.375 182.846 359.782C182.451 360.063 182.061 360.34 181.679 360.612L230.803 163.882ZM266.588 424.44C281.393 427.849 296.329 429.998 308.944 429.018M266.588 424.44L308.944 429.018M308.944 429.018C321.242 428.062 334.533 423.779 340.738 411.028M308.944 429.018L340.738 411.028M340.738 411.028C347.751 396.734 361.434 381.588 375.931 368.322C388.95 356.41 401.904 346.657 409.53 341.191C452.382 335.201 503.373 324.619 549.296 310.74C595.635 296.736 638.632 278.857 662.164 257.843C673.004 248.162 677.658 234.29 677.658 221.061C677.658 207.795 672.994 193.875 662.111 184.171C638.802 163.384 596.463 145.671 550.725 131.745C505.377 117.938 454.939 107.351 412.218 101.245C405.792 96.7359 392.694 87.1698 379.045 75.0123C363.501 61.1661 348.282 44.859 340.74 29.4726C334.533 16.7243 321.239 12.4493 308.945 11.4982C296.332 10.5224 281.4 12.6742 266.597 16.0854C236.811 22.9494 204.313 35.7052 185.006 43.8586L340.738 411.028ZM535.351 219.93C535.351 239.314 519.619 255.055 500.187 255.055C480.801 255.055 465.101 239.334 465.101 219.93C465.101 200.504 480.797 184.805 500.187 184.805C519.623 184.805 535.351 200.524 535.351 219.93Z" fill="#D30D0D" stroke="black" stroke-width="21.4088"/>
<circle cx="498.985" cy="219.914" r="41.1636" transform="rotate(60 498.985 219.914)" fill="white" stroke="black" stroke-width="16.2335"/>
<path d="M470.851 106.424L225.14 121.771" stroke="black" stroke-width="21.4088"/>
<path d="M483.773 336.235L216.436 329.138" stroke="black" stroke-width="21.4088"/>
<circle cx="383.542" cy="222.005" r="13.9144" transform="rotate(60 383.542 222.005)" fill="black"/>
<circle cx="378.542" cy="296.005" r="13.9144" transform="rotate(60 378.542 296.005)" fill="black"/>
<circle cx="377.542" cy="147.533" r="13.9144" transform="rotate(60 377.542 147.533)" fill="black"/>
<path d="M405.411 109.597C416.432 148.941 431.462 248.131 403.416 330.142" stroke="black" stroke-width="21.4088"/>
</svg>
