<svg width="61" height="61" viewBox="0 0 61 61" fill="none" xmlns="http://www.w3.org/2000/svg">
<path d="M28.2384 1.91831C29.0317 -0.157488 31.9683 -0.157491 32.7616 1.9183L39.6522 19.9505C39.898 20.5938 40.4062 21.102 41.0495 21.3478L59.0817 28.2384C61.1575 29.0317 61.1575 31.9683 59.0817 32.7616L41.0495 39.6522C40.4062 39.898 39.898 40.4062 39.6522 41.0495L32.7616 59.0817C31.9683 61.1575 29.0317 61.1575 28.2384 59.0817L21.3478 41.0495C21.102 40.4062 20.5938 39.898 19.9505 39.6522L1.91831 32.7616C-0.157488 31.9683 -0.157491 29.0317 1.9183 28.2384L19.9505 21.3478C20.5938 21.102 21.102 20.5938 21.3478 19.9505L28.2384 1.91831Z" fill="white"/>
</svg>
